<?xml version="1.0" encoding="UTF-8"?>
<svg id="Layer_2" data-name="Layer 2" xmlns="http://www.w3.org/2000/svg" viewBox="0 0 549.58 170.04">
  <defs>
    <style>
      .cls-1 {
        letter-spacing: -.08em;
      }

      .cls-2 {
        letter-spacing: 0em;
      }

      .cls-3 {
        font-family: Wreath-Bol, Wreath;
        font-size: 131px;
      }

      .cls-4 {
        fill: #f3999d;
        stroke-width: 0px;
      }
    </style>
  </defs>
  <path class="cls-4" d="m549.58,79.12v3.3c-.06.43-.14.86-.18,1.29-1.01,9.71-4.66,16.1-10.85,19.24-1.03.52-2.14.72-3.21,1.07-173.66,0-347.31,0-520.97,0-.26-.09-.51-.22-.77-.27-5.83-1.27-10.05-5.91-12.3-14.01-2.24-8.08-1.58-15.92,1.97-22.94,3.2-6.33,7.61-9.1,12.9-9.1,172.41.02,344.81.01,517.22.01.17,0,.33,0,.5,0,7.38.13,13.39,7.04,15.16,17.45.22,1.3.35,2.63.53,3.95Z"/>
  <text class="cls-3" transform="translate(40.67 106.11)"><tspan class="cls-1" x="0" y="0">F</tspan><tspan class="cls-2" x="45.98" y="0">ollicular</tspan></text>
</svg>