<?xml version="1.0" encoding="UTF-8"?>
<svg id="Layer_2" data-name="Layer 2" xmlns="http://www.w3.org/2000/svg" viewBox="0 0 614.74 106.74">
  <defs>
    <style>
      .cls-1, .cls-2 {
        stroke-width: 0px;
      }

      .cls-3 {
        isolation: isolate;
      }

      .cls-2 {
        fill: #f3999d;
      }
    </style>
  </defs>
  <path class="cls-2" d="M614.74,55.07v3.91c-.07.51-.15,1.02-.2,1.53-1.13,11.5-5.22,19.07-12.14,22.79-1.15.62-2.39.86-3.59,1.27H16.08c-.29-.11-.57-.26-.86-.33-6.52-1.51-11.24-7-13.76-16.6-2.51-9.58-1.77-18.87,2.2-27.18,3.58-7.5,8.52-10.78,14.43-10.78,192.84.02,385.69.02,578.53.02h.56c8.25.16,14.98,8.34,16.96,20.68.25,1.54.39,3.12.59,4.68h0Z"/>
  <g class="cls-3">
    <g class="cls-3">
      <path class="cls-1" d="M75.34,2.09c0-1.13,1.45-1.29,3.7-1.29,8.37,0,21.73,2.09,21.9,7.41l-2.58,20.61,3.38-10.46c4.99-12.4,11.91-16.26,19.32-16.26,9.66,0,20.29,6.12,20.29,23.99,0,26.56-23.51,44.92-45.24,44.92h-1.77c-.64,9.18-1.13,18.19-1.45,27.21-2.58,1.29-4.67,1.29-6.76,1.29-11.91,0-13.68-3.86-13.68-17.23,0-17.39,2.74-74.38,2.9-80.18ZM95.14,61.5c-.16,1.29-.32,2.58-.32,3.86h1.13c16.26,0,23.18-31.39,23.18-42.5,0-7.08-2.9-11.11-5.63-11.11-8.85,0-16.74,38.64-18.35,49.75Z"/>
    </g>
    <g class="cls-3">
      <path class="cls-1" d="M158.09,73.9c.64,9.98,4.02,18.84,12.88,18.84s15.94-8.05,22.38-17.55l6.44-9.66,3.38,1.77-6.76,9.82c-7.41,10.79-16.42,23.18-33,23.18-18.51,0-28.01-14.81-28.01-30.75,0-14.33,8.21-35.42,33.65-35.42,12.07,0,20.77,4.83,20.77,13.85,0,11.43-14.17,17.71-28.82,24.47l-2.9,1.45ZM157.93,68.91l3.06-1.45c8.85-4.03,13.68-12.88,13.68-20.12,0-4.02-1.45-5.8-3.7-5.8-5.8,0-12.88,10.14-13.04,27.37Z"/>
      <path class="cls-1" d="M217.5,67.46l.16-.32c3.86-14.33,8.37-31.72,23.99-31.72,6.92,0,12.4,3.38,12.4,13.04,0,12.4-9.02,19.96-18.51,19.96-2.9,0-4.99-.32-7.57-1.93,5.96-6.76,8.05-16.1,8.05-19.8,0-2.09-.81-2.42-1.61-2.42-9.66,0-17.23,47.33-19.8,54.74h-.32c-2.74.48-5.15.64-7.08.64-10.79,0-12.88-4.51-12.88-11.27,0-7.57,2.58-39.77,2.25-50.71,2.74-.97,7.41-1.13,9.34-1.13,5.31,0,12.4,1.29,12.4,11.91,0,3.22-.64,12.4-.64,18.03,0,.32-.16.64-.16.97Z"/>
      <path class="cls-1" d="M299.93,66.49l.8-3.22h3.7l-1.13,3.86c-8.69,29.78-15.13,39.6-26.08,39.6-15.29,0-17.23-19.16-17.23-29.46,0-12.72,2.9-35.74,4.02-41.7,2.42-.8,4.83-.97,6.92-.97,7.73,0,12.88,2.09,12.88,10.63,0,7.08-3.54,29.62-3.54,41.86,0,5.15.64,12.4,3.7,12.4,4.51,0,11.91-16.74,15.94-33ZM273.69,4.51c7.57,0,14.17,6.44,14.17,14.17,0,6.92-5.47,9.02-10.95,9.02-9.98,0-14.17-6.76-14.17-12.88,0-7.08,5.63-10.3,10.95-10.3Z"/>
      <path class="cls-1" d="M321.83,77.12c0,11.11,3.22,19.64,8.37,19.64,4.03,0,8.69-4.51,11.27-15.94-7.41-2.58-14.97-8.69-14.97-21.73,0-10.3,4.67-16.9,12.08-16.9,5.31,0,15.29,4.51,15.29,23.5,0,4.51-.48,9.18-1.45,13.36,9.02,0,15.13-8.53,19.48-17.07l2.58,1.77c-5.15,9.98-11.91,18.51-22.86,18.67-3.38,10.95-10.79,19.32-24.31,19.32-16.9,0-29.46-12.88-29.46-28.66s9.34-40.41,37.19-40.41c4.99,0,12.88.48,12.88,5.63,0,1.93-.97,3.38-2.09,4.03-3.22-1.77-5.64-3.06-9.5-3.06-8.85,0-14.49,13.85-14.49,37.83ZM342.44,74.38c.32-3.38.64-7.08.64-11.43,0-12.24-2.09-15.78-3.7-15.78-2.25,0-2.58,3.38-2.58,9.34,0,8.53,2.25,14.33,5.64,17.87Z"/>
      <path class="cls-1" d="M445.47,66.49l.97-3.38,3.7.16-1.13,3.86c-8.53,29.3-14.65,39.6-26.4,39.6-15.13,0-16.9-16.58-16.9-28.5-.16.16-.16.32-.16.32-4.19,11.59-9.82,21.73-21.09,21.73s-19.16-11.11-19.16-25.28c0-20.12,14.97-40.73,34.29-40.73,2.42,0,5.63.32,8.21,1.45,1.13-16.1,2.42-30.59,3.06-33.49,1.45-1.77,4.03-2.25,6.28-2.25,6.76,0,13.85,1.45,13.85,7.89,0,5.63-4.67,45.24-4.67,75.83,0,9.82.48,15.62,3.38,15.62,4.83,0,11.11-16.58,15.78-32.84ZM406.03,64.56c.32-7.08.64-15.29,1.29-23.34-.97-.32-1.77-.64-2.9-.64-12.08,0-16.58,24.63-16.58,37.03,0,2.09,0,14.49,4.19,14.49,4.67,0,10.3-15.94,14.01-27.53Z"/>
      <path class="cls-1" d="M484.27,66.49l.81-3.22h3.7l-1.13,3.86c-8.69,29.78-15.13,39.6-26.08,39.6-15.29,0-17.23-19.16-17.23-29.46,0-12.72,2.9-35.74,4.03-41.7,2.42-.8,4.83-.97,6.92-.97,7.73,0,12.88,2.09,12.88,10.63,0,7.08-3.54,29.62-3.54,41.86,0,5.15.64,12.4,3.7,12.4,4.51,0,11.91-16.74,15.94-33ZM458.03,4.51c7.57,0,14.17,6.44,14.17,14.17,0,6.92-5.47,9.02-10.95,9.02-9.98,0-14.17-6.76-14.17-12.88,0-7.08,5.63-10.3,10.95-10.3Z"/>
      <path class="cls-1" d="M522.75,47.01c0-3.06-.8-6.76-4.35-6.76-7.57,0-14.01,16.58-14.01,33.17,0,12.4,6.28,18.03,14.65,18.03,11.59,0,22.7-6.6,29.62-18.84l3.7-6.6,3.38,1.77-3.7,6.44c-9.34,16.26-23.67,24.79-39.93,24.79-21.25,0-29.95-14.81-29.95-27.85,0-17.71,13.2-37.03,37.83-37.03,15.78,0,20.45,8.05,20.45,13.69s-4.83,12.4-17.39,12.4c-1.93,0-4.35-.16-6.76-.97,2.74-1.93,6.44-5.63,6.44-12.24Z"/>
    </g>
  </g>
</svg>